<?xml version="1.0" standalone="no"?>
<!DOCTYPE svg PUBLIC "-//W3C//DTD SVG 20010904//EN"
 "http://www.w3.org/TR/2001/REC-SVG-20010904/DTD/svg10.dtd">
<svg version="1.0" xmlns="http://www.w3.org/2000/svg"
 width="400.000000pt" height="400.000000pt" viewBox="0 0 400.000000 400.000000"
 preserveAspectRatio="xMidYMid meet">
<metadata>
Created by potrace 1.14, written by Peter Selinger 2001-2017
</metadata>
<g transform="translate(0.000000,400.000000) scale(0.100000,-0.100000)"
fill="#000000" stroke="none">
<path d="M1471 3364 c-21 -27 -30 -91 -11 -79 6 3 10 17 10 31 0 30 34 66 56
57 12 -4 14 -14 9 -42 -9 -48 -13 -53 -36 -46 -22 7 -25 -11 -5 -34 7 -9 18
-49 25 -89 13 -85 11 -92 -78 -217 -32 -44 -66 -95 -76 -112 -19 -32 -19 -32
-38 -12 -63 67 -120 -78 -97 -242 5 -35 10 -67 10 -72 0 -9 61 -47 74 -47 6 0
-6 15 -26 33 -33 30 -36 38 -43 109 -11 113 13 218 50 218 24 0 42 -51 32 -90
-16 -58 -1 -306 23 -381 11 -37 27 -72 35 -79 24 -20 18 -30 -17 -30 -43 -1
-133 -62 -172 -117 -24 -34 -30 -55 -34 -115 -4 -74 -4 -74 29 -103 19 -15 66
-43 106 -62 l71 -33 -11 -30 c-6 -17 -19 -33 -29 -36 -34 -10 -68 -63 -68
-105 0 -70 44 -149 82 -149 11 0 38 -16 61 -35 22 -19 46 -35 53 -35 7 0 29
-10 50 -22 80 -47 287 -52 347 -8 l29 22 15 -21 c20 -29 84 -60 137 -67 34 -5
55 -1 90 16 25 12 46 25 46 30 0 4 8 10 18 13 98 30 158 60 229 116 95 74 135
137 154 246 10 56 19 79 50 115 20 25 39 54 41 65 1 11 12 25 23 30 11 6 30
26 43 45 21 31 23 42 18 100 -4 36 -12 83 -17 105 -6 22 -11 41 -10 42 2 9
-36 85 -60 120 -15 24 -35 64 -44 90 -19 57 -58 126 -86 152 -11 10 -43 22
-70 25 -43 6 -50 10 -44 24 17 39 18 122 2 146 -9 13 -21 51 -26 84 -12 77
-38 126 -102 196 l-52 58 29 24 c46 38 70 40 97 9 17 -20 29 -26 44 -21 61 20
56 196 -6 196 -23 0 -45 -32 -62 -88 -7 -23 -16 -42 -22 -42 -5 0 -26 -13 -47
-30 -43 -34 -52 -36 -70 -15 -7 9 -51 36 -98 62 l-84 46 -92 -6 c-84 -6 -185
-30 -239 -58 -12 -7 -45 -31 -74 -55 -28 -24 -56 -44 -61 -44 -13 0 -27 101
-19 133 3 12 11 42 17 66 8 32 8 47 -1 57 -18 22 -56 16 -78 -12z m953 -50
c10 -25 7 -104 -4 -125 -6 -10 -16 -19 -23 -19 -16 0 -50 57 -44 73 2 7 5 15
6 20 0 4 8 21 16 37 17 33 39 39 49 14z m-328 -95 c39 -21 79 -48 89 -59 19
-21 19 -22 -23 -61 -23 -22 -42 -47 -42 -55 0 -7 21 7 47 31 26 25 50 45 53
45 4 0 31 -25 59 -55 56 -59 85 -114 96 -182 6 -39 5 -43 -15 -43 -54 0 -80
-44 -80 -133 0 -55 19 -87 52 -87 15 0 17 -5 12 -27 -11 -52 -53 -128 -96
-175 -24 -26 -60 -67 -81 -92 -22 -27 -49 -47 -67 -51 -17 -4 -30 -11 -30 -16
0 -11 -2 -11 38 0 30 9 32 8 32 -15 0 -13 5 -24 10 -24 6 0 10 6 10 13 0 6 17
23 37 37 20 14 52 40 70 59 29 30 33 32 33 13 0 -11 5 -24 10 -27 6 -3 10 -15
10 -26 0 -10 5 -19 10 -19 6 0 10 7 10 15 0 9 8 18 18 22 9 3 28 18 42 32 14
14 36 33 50 42 14 9 22 20 18 24 -4 4 -17 0 -30 -9 -12 -9 -30 -16 -40 -16 -9
0 -27 -14 -41 -31 l-24 -31 -12 31 c-12 27 -10 39 20 115 19 47 37 86 41 86
14 0 89 -73 103 -99 18 -35 61 -168 69 -213 4 -20 11 -38 17 -40 6 -2 13 -24
16 -48 4 -25 13 -50 20 -55 9 -7 17 -42 22 -90 7 -71 6 -84 -12 -117 -24 -44
-37 -48 -37 -14 0 31 -49 235 -62 259 -21 39 -17 6 12 -108 45 -177 37 -305
-26 -412 -34 -58 -164 -158 -238 -183 -76 -26 -76 -26 -76 10 0 73 -36 102
-148 116 -59 7 -58 5 -66 112 -4 63 -4 64 25 74 16 6 36 23 45 39 8 16 20 29
28 29 19 0 199 79 215 95 8 8 12 17 8 21 -3 3 -14 -1 -23 -10 -11 -12 -20 -14
-27 -7 -6 6 -18 4 -34 -6 -13 -9 -25 -14 -27 -12 -2 2 -13 34 -25 71 -26 78
-59 131 -85 136 -16 3 -15 -1 7 -40 14 -23 33 -70 43 -103 9 -33 21 -63 27
-67 7 -4 7 -12 -2 -22 -15 -18 -31 -12 -31 12 0 9 -19 56 -42 105 -31 65 -44
84 -50 73 -5 -10 -3 -26 5 -43 8 -16 18 -44 22 -63 l7 -35 -36 45 c-25 31 -35
51 -30 65 16 55 17 68 3 63 -8 -2 -21 -18 -29 -36 -8 -17 -28 -37 -43 -43 -16
-7 -36 -23 -44 -36 l-16 -23 -51 48 c-43 41 -60 50 -102 56 -53 7 -148 -7
-170 -25 -9 -7 -19 -7 -33 0 -25 14 -111 14 -111 1 0 -5 21 -10 48 -10 63 0
122 -45 122 -94 0 -68 -62 -112 -142 -102 -64 9 -141 38 -201 76 l-47 30 0 59
c0 71 12 106 48 144 81 87 169 114 243 76 73 -37 63 -13 -12 27 -27 15 -58 41
-69 58 -30 50 -53 209 -48 344 4 136 14 163 104 283 31 41 66 95 79 120 23 45
119 135 174 164 67 34 234 67 296 57 17 -2 62 -22 101 -43z m276 -421 c-3 -20
14 -25 21 -5 3 6 10 0 16 -16 12 -30 7 -65 -16 -110 -12 -24 -19 -28 -51 -25
l-37 3 0 71 c0 46 5 77 14 88 18 22 57 17 53 -6z m85 -193 c66 -16 76 -24 113
-96 34 -68 39 -123 13 -176 l-17 -36 -16 61 c-22 81 -53 124 -136 193 -36 30
-57 86 -27 74 10 -4 42 -13 70 -20z m-144 -165 c-9 -22 -20 -40 -25 -40 -4 0
-8 -6 -8 -14 0 -17 -36 -63 -60 -76 -36 -19 -5 46 52 110 29 33 54 60 55 60 1
0 -6 -18 -14 -40z m362 -150 c13 -15 48 -149 44 -166 -1 -5 1 -26 5 -47 7 -31
4 -43 -15 -72 -13 -19 -28 -33 -34 -32 -5 2 -11 23 -13 47 -2 23 -10 49 -18
57 -8 8 -14 20 -14 28 0 7 -14 50 -31 94 -27 72 -29 82 -16 96 9 8 21 31 28
52 l12 37 20 -40 c10 -21 25 -46 32 -54z m-503 -12 c-7 -7 -12 -8 -12 -2 0 6
3 14 7 17 3 4 9 5 12 2 2 -3 -1 -11 -7 -17z m-449 -244 c27 -5 50 -19 78 -49
70 -74 73 -80 55 -126 -20 -50 -20 -103 0 -120 8 -7 34 -13 57 -13 50 -1 55
-15 37 -102 -11 -50 -15 -57 -47 -71 -20 -8 -45 -15 -57 -15 -12 -1 -27 -6
-33 -11 -31 -23 -286 -60 -350 -50 -17 3 -41 15 -52 27 -28 30 -48 129 -32
159 6 12 12 50 14 84 l2 61 58 -1 c57 -2 59 -1 99 41 37 40 40 48 35 84 -3 22
-13 48 -22 58 -19 21 -10 30 45 41 48 9 69 10 113 3z m264 -58 c41 -34 67 -96
59 -138 -11 -52 -38 -77 -100 -90 -67 -13 -86 -2 -86 49 0 44 15 72 46 83 29
11 31 26 4 33 -33 9 -25 53 15 75 28 16 30 15 62 -12z m107 -138 c-9 -14 -24
2 -24 25 1 21 1 21 15 3 8 -10 12 -23 9 -28z m-741 -200 c4 -40 9 -85 13 -100
4 -20 3 -28 -7 -28 -24 0 -66 53 -73 91 -7 38 7 88 27 101 27 17 35 6 40 -64z
m787 -127 c21 -15 25 -26 25 -72 0 -49 -2 -55 -34 -76 -37 -25 -75 -29 -133
-13 -103 29 -138 131 -61 175 38 21 167 13 203 -14z m-240 10 c0 -6 -4 -13
-10 -16 -5 -3 -10 -16 -10 -28 -1 -12 -11 -34 -23 -49 -20 -24 -31 -28 -127
-37 -86 -9 -114 -8 -153 4 -52 16 -107 45 -107 57 0 4 34 8 76 8 75 0 161 16
279 50 73 22 75 22 75 11z"/>
<path d="M1674 3062 c-46 -25 -132 -103 -153 -137 -37 -60 -72 -187 -78 -280
-4 -77 -2 -98 17 -149 31 -82 76 -123 195 -175 123 -54 175 -58 253 -17 118
60 200 185 210 317 12 177 -56 372 -148 419 -78 40 -241 52 -296 22z m261 -26
c81 -34 123 -101 151 -236 25 -124 17 -230 -24 -313 -38 -77 -102 -139 -179
-174 -69 -32 -102 -27 -231 29 -107 47 -151 90 -178 170 -36 111 -2 307 71
403 15 19 32 33 38 32 5 -1 13 9 16 22 4 14 28 39 56 59 l50 34 95 -4 c57 -3
111 -12 135 -22z"/>
<path d="M1626 2859 c-7 -19 -26 -139 -26 -163 0 -48 18 6 29 83 10 77 9 114
-3 80z"/>
<path d="M1903 2813 c1 -21 -2 -60 -6 -88 -7 -41 -6 -48 4 -37 17 15 26 162
11 162 -5 0 -9 -17 -9 -37z"/>
<path d="M1765 2543 c-37 -11 -54 -12 -67 -4 -22 14 -81 15 -73 1 3 -5 15 -10
26 -10 10 0 28 -5 38 -12 14 -9 33 -7 85 8 36 10 66 22 66 26 0 11 -17 9 -75
-9z"/>
<path d="M2055 2150 c-25 -27 -12 -37 14 -11 12 12 21 23 21 26 0 11 -18 4
-35 -15z"/>
<path d="M2350 2121 c0 -10 -7 -37 -15 -60 -15 -43 -2 -59 15 -17 17 45 23 96
11 96 -6 0 -11 -8 -11 -19z"/>
<path d="M2881 3243 c1 -65 5 -61 12 10 2 26 1 47 -4 47 -5 0 -9 -26 -8 -57z"/>
<path d="M2818 3163 c-10 -2 -18 -9 -18 -15 0 -6 10 -8 23 -4 12 3 30 6 40 6
9 0 17 5 17 10 0 10 -30 12 -62 3z"/>
<path d="M2933 3163 c-7 -2 -13 -9 -13 -15 0 -12 50 -2 65 13 10 10 -30 12
-52 2z"/>
<path d="M2894 3069 c3 -17 6 -35 6 -40 0 -5 4 -9 10 -9 5 0 9 18 7 40 -1 26
-7 40 -16 40 -10 0 -12 -8 -7 -31z"/>
<path d="M2907 2833 c-4 -3 -7 -16 -6 -27 0 -19 1 -19 10 3 10 24 8 36 -4 24z"/>
<path d="M2966 2793 c-3 -3 -6 -23 -6 -43 0 -48 -41 -89 -88 -88 -28 1 -32 4
-27 22 5 19 5 19 -5 3 -9 -14 -9 -22 1 -33 9 -11 9 -20 0 -41 -6 -14 -9 -28
-6 -31 3 -3 11 9 17 26 7 18 22 35 33 38 11 4 28 13 37 21 10 9 24 13 32 10 9
-4 16 4 20 24 3 16 9 42 12 58 6 27 -6 48 -20 34z"/>
<path d="M2891 2764 c0 -11 3 -14 6 -6 3 7 2 16 -1 19 -3 4 -6 -2 -5 -13z"/>
<path d="M2881 2724 c0 -11 3 -14 6 -6 3 7 2 16 -1 19 -3 4 -6 -2 -5 -13z"/>
<path d="M513 2628 c-6 -13 -18 -57 -28 -98 -10 -41 -19 -80 -21 -87 -2 -6
-25 -29 -53 -50 -27 -21 -50 -40 -50 -43 -1 -9 77 -60 93 -60 20 0 24 -7 45
-92 10 -40 23 -74 28 -75 6 -2 40 28 76 67 37 39 67 67 67 63 0 -12 109 -68
117 -60 3 4 8 65 10 135 1 90 7 137 17 157 28 53 -14 72 -95 44 -29 -11 -56
-19 -59 -19 -3 0 -13 19 -24 41 -41 90 -100 127 -123 77z m98 -66 c23 -37 43
-69 45 -71 2 -2 30 6 64 19 48 18 63 20 75 10 13 -11 12 -16 -6 -41 -17 -24
-19 -35 -11 -57 7 -20 2 -178 -7 -210 -1 -1 -26 12 -57 29 l-56 32 -61 -68
c-58 -65 -61 -66 -70 -44 -4 13 -9 38 -9 54 0 44 -43 105 -72 105 -13 0 -29 7
-36 16 -17 20 5 44 46 48 32 4 39 24 47 131 6 67 31 127 51 119 9 -3 34 -36
57 -72z"/>
<path d="M2951 2608 c0 -28 2 -30 9 -13 12 28 12 45 0 45 -5 0 -10 -15 -9 -32z"/>
<path d="M3365 2609 c-27 -10 -68 -18 -89 -19 -31 0 -37 -3 -28 -12 12 -12 85
-2 135 17 23 10 22 -15 -3 -65 -24 -47 -25 -60 -4 -60 9 0 26 -8 39 -18 l23
-18 -49 -58 c-45 -53 -65 -106 -39 -106 6 0 10 11 10 25 0 15 21 48 60 92 55
62 73 93 52 93 -4 0 -13 -5 -18 -10 -7 -7 -21 -5 -42 6 l-32 15 19 37 c22 43
36 103 24 101 -4 -1 -30 -10 -58 -20z"/>
<path d="M386 1873 c10 -57 24 -63 22 -10 -2 31 -7 47 -16 47 -9 0 -11 -10 -6
-37z"/>
<path d="M318 1803 c-10 -2 -18 -9 -18 -13 0 -11 61 -1 75 11 9 9 -26 10 -57
2z"/>
<path d="M430 1800 c-21 -13 -10 -18 27 -13 18 3 30 9 27 14 -7 12 -35 11 -54
-1z"/>
<path d="M410 1731 c0 -43 18 -101 31 -101 11 0 11 3 -2 37 -6 15 -11 45 -11
65 0 21 -4 38 -9 38 -5 0 -9 -17 -9 -39z"/>
<path d="M2950 1665 c0 -29 20 -75 33 -75 5 0 6 8 2 18 -5 9 -10 32 -13 50 -5
37 -22 43 -22 7z"/>
<path d="M739 1535 c-20 -63 -28 -75 -46 -75 -17 0 -53 -23 -53 -33 0 -1 -4
-17 -9 -35 -9 -29 -7 -34 15 -48 15 -10 33 -14 49 -10 34 9 32 24 -3 18 -40
-5 -54 15 -37 56 14 31 38 42 50 22 13 -21 21 -8 39 60 9 38 22 72 26 75 9 5
64 -62 73 -88 3 -8 11 -6 25 6 14 13 32 17 59 15 32 -2 39 -7 41 -27 2 -14 -3
-30 -11 -36 -16 -11 -17 -30 -5 -51 4 -5 10 -33 14 -62 8 -64 -4 -71 -75 -48
-65 21 -64 21 -85 -19 -11 -19 -25 -35 -32 -35 -17 0 -37 65 -30 96 4 13 2 24
-4 24 -31 0 -12 -113 23 -134 15 -9 22 -6 42 16 12 15 24 31 26 37 3 6 24 4
59 -5 90 -23 106 -6 90 94 -7 37 -6 68 1 93 21 68 -26 99 -105 70 -22 -9 -28
-5 -62 45 -20 30 -41 54 -44 54 -4 0 -18 -34 -31 -75z"/>
<path d="M2861 1579 c-13 -5 -21 -12 -18 -15 6 -6 87 14 87 21 0 8 -44 4 -69
-6z"/>
<path d="M3010 1580 c0 -5 9 -10 20 -10 11 0 20 5 20 10 0 6 -9 10 -20 10 -11
0 -20 -4 -20 -10z"/>
<path d="M2986 1542 c-6 -11 11 -71 26 -87 5 -6 6 8 2 35 -7 48 -18 68 -28 52z"/>
<path d="M2580 1295 c-6 -15 -19 -66 -29 -113 -31 -140 -51 -186 -86 -193 -22
-5 -24 -7 -8 -8 14 -1 23 -9 26 -23 3 -22 4 -22 15 5 13 32 28 35 37 8 3 -11
13 -25 22 -33 14 -11 13 -7 -2 19 -21 36 -19 41 15 45 18 2 25 -3 30 -22 7
-25 7 -25 11 5 2 18 10 30 19 30 9 0 14 -7 12 -18 -3 -16 0 -17 20 -6 13 6 36
23 51 38 27 24 29 25 41 9 17 -24 25 -23 19 2 -4 16 0 20 17 20 16 0 20 -4 16
-15 -9 -25 10 -17 24 10 7 14 17 25 22 25 5 0 13 -11 18 -25 11 -29 18 -30 48
-9 12 8 22 10 22 5 0 -6 4 -11 8 -11 11 0 34 49 28 59 -3 4 4 7 14 8 12 1 20
-7 24 -28 7 -36 31 -47 55 -25 20 18 41 21 41 6 0 -5 5 -10 12 -10 6 0 4 8 -7
20 -9 10 -22 18 -27 17 -6 -1 -14 8 -19 21 -7 19 -5 25 14 33 21 9 21 9 -3 4
-14 -2 -32 -5 -40 -5 -11 0 -12 -2 -2 -8 8 -6 10 -19 6 -40 -8 -38 -24 -32
-24 9 0 25 -4 29 -29 29 -17 0 -33 -4 -36 -10 -3 -5 -28 -10 -54 -10 -26 0
-52 -5 -59 -12 -9 -9 -12 -6 -12 16 0 29 1 29 -47 9 -6 -2 -13 6 -16 19 -4 21
-4 21 -6 -4 -1 -17 -8 -29 -22 -33 -31 -10 -34 1 -13 40 15 28 16 37 6 47 -11
11 -12 10 -6 -5 8 -23 -21 -67 -46 -67 -27 0 -25 8 8 44 l27 31 -33 -30 c-23
-20 -31 -36 -28 -49 6 -23 -10 -46 -30 -46 -11 0 -14 25 -14 119 0 120 -11
157 -30 106z m20 -34 c0 -19 -17 -38 -25 -29 -7 7 7 48 16 48 5 0 9 -9 9 -19z
m0 -126 c0 -71 -3 -87 -17 -92 -15 -6 -15 -7 3 -15 15 -7 15 -8 -5 -4 -14 3
-31 0 -38 -6 -8 -6 -16 -8 -19 -5 -9 8 55 207 66 207 6 0 10 -37 10 -85z m220
-34 c0 -19 -35 -39 -47 -27 -4 3 -12 1 -20 -6 -7 -6 -16 -8 -19 -5 -10 10 5
39 16 32 5 -3 20 1 32 9 29 21 38 20 38 -3z m-110 -8 c0 -17 -56 -63 -77 -63
-33 0 -29 13 14 43 37 26 63 34 63 20z m216 -20 c-10 -10 -19 5 -10 18 6 11 8
11 12 0 2 -7 1 -15 -2 -18z m-26 1 c0 -8 -5 -12 -10 -9 -6 4 -8 11 -5 16 9 14
15 11 15 -7z m-210 -48 c0 -3 -4 -8 -10 -11 -5 -3 -10 -1 -10 4 0 6 5 11 10
11 6 0 10 -2 10 -4z"/>
<path d="M3565 1230 c-18 -8 -18 -9 5 -9 14 0 32 4 40 9 12 8 12 10 -5 9 -11
0 -29 -4 -40 -9z"/>
<path d="M3288 1208 c-2 -17 -12 -25 -38 -29 l-35 -6 38 -2 c20 0 37 -5 37
-11 0 -5 -5 -10 -11 -10 -8 0 -8 -4 -1 -13 6 -7 12 -32 14 -56 2 -29 8 -46 18
-49 12 -4 13 -2 3 9 -20 20 -16 96 5 109 16 11 16 11 0 6 -12 -3 -18 0 -18 10
0 11 6 13 20 9 11 -3 20 -2 20 4 0 5 15 12 33 14 27 3 26 4 -11 5 -28 1 -45 7
-48 17 -9 22 -22 18 -26 -7z"/>
<path d="M3493 1213 c9 -2 23 -2 30 0 6 3 -1 5 -18 5 -16 0 -22 -2 -12 -5z"/>
<path d="M3423 1203 c9 -2 25 -2 35 0 9 3 1 5 -18 5 -19 0 -27 -2 -17 -5z"/>
<path d="M2766 1185 c-3 -8 -1 -15 4 -15 6 0 10 7 10 15 0 8 -2 15 -4 15 -2 0
-6 -7 -10 -15z"/>
<path d="M3135 1160 c-27 -7 -27 -8 -5 -8 14 0 39 4 55 8 27 7 27 8 5 8 -14 0
-38 -4 -55 -8z"/>
<path d="M3170 1093 c0 -19 20 -26 36 -12 12 10 17 8 30 -7 14 -18 15 -18 4 4
-12 25 -21 27 -38 10 -10 -10 -15 -10 -22 2 -6 9 -10 10 -10 3z"/>
<path d="M2585 930 c-3 -5 -1 -10 4 -10 6 0 11 5 11 10 0 6 -2 10 -4 10 -3 0
-8 -4 -11 -10z"/>
</g>
</svg>
